<svg xmlns="http://www.w3.org/2000/svg" xmlns:xlink="http://www.w3.org/1999/xlink" viewBox="0 0 777.36 592.23"><defs><style>.cls-1{mask:url(#mask);}.cls-10,.cls-19,.cls-2,.cls-4,.cls-6,.cls-8{mix-blend-mode:multiply;}.cls-2{fill:url(#linear-gradient);}.cls-3{mask:url(#mask-2);}.cls-4{fill:url(#linear-gradient-2);}.cls-5{mask:url(#mask-3);}.cls-6{fill:url(#linear-gradient-3);}.cls-7{mask:url(#mask-4);}.cls-8{fill:url(#linear-gradient-4);}.cls-9{mask:url(#mask-5);}.cls-10{fill:url(#linear-gradient-5);}.cls-11{isolation:isolate;}.cls-12{fill:url(#linear-gradient-6);}.cls-13{fill:url(#linear-gradient-7);}.cls-14{mask:url(#mask-6);}.cls-15{opacity:0.7;fill:url(#linear-gradient-8);}.cls-16{fill:#333;}.cls-17{fill:url(#linear-gradient-9);}.cls-18{mask:url(#mask-7);}.cls-19{fill:url(#linear-gradient-10);}.cls-20{fill:#777;}.cls-21{fill:url(#linear-gradient-11);}.cls-22{mask:url(#mask-8);}.cls-23,.cls-40{opacity:0.2;}.cls-23{fill:url(#linear-gradient-12);}.cls-24{fill:#c7c7c7;}.cls-25{fill:url(#linear-gradient-13);}.cls-26{fill:url(#linear-gradient-14);}.cls-27{fill:url(#linear-gradient-15);}.cls-28{fill:url(#linear-gradient-16);}.cls-29{fill:#404040;}.cls-30{fill:url(#linear-gradient-17);}.cls-31{fill:url(#linear-gradient-18);}.cls-32{fill:url(#linear-gradient-19);}.cls-33{fill:url(#linear-gradient-20);}.cls-34{fill:url(#linear-gradient-21);}.cls-35{fill:url(#linear-gradient-22);}.cls-36{fill:url(#linear-gradient-23);}.cls-37{mask:url(#mask-9);}.cls-38{fill:url(#linear-gradient-24);}.cls-39{mask:url(#mask-10);}.cls-40{fill:url(#linear-gradient-25);}.cls-41{filter:url(#luminosity-noclip-10);}.cls-42{filter:url(#luminosity-noclip-9);}.cls-43{filter:url(#luminosity-noclip-8);}.cls-44{filter:url(#luminosity-noclip-7);}.cls-45{filter:url(#luminosity-noclip-6);}.cls-46{filter:url(#luminosity-noclip-5);}.cls-47{filter:url(#luminosity-noclip-4);}.cls-48{filter:url(#luminosity-noclip-3);}.cls-49{filter:url(#luminosity-noclip-2);}.cls-50{filter:url(#luminosity-noclip);}</style><filter id="luminosity-noclip" x="527.35" y="-8692" width="203.98" height="32766" filterUnits="userSpaceOnUse" color-interpolation-filters="sRGB"><feFlood flood-color="#fff" result="bg"/><feBlend in="SourceGraphic" in2="bg"/></filter><mask id="mask" x="527.35" y="-8692" width="203.98" height="32766" maskUnits="userSpaceOnUse"><g class="cls-50"/></mask><linearGradient id="linear-gradient" x1="629.34" y1="824.41" x2="629.34" y2="818.28" gradientUnits="userSpaceOnUse"><stop offset="0" stop-color="#fff"/><stop offset="0.01" stop-color="#f6f6f6"/><stop offset="0.05" stop-color="#c8c8c8"/><stop offset="0.09" stop-color="#9d9d9d"/><stop offset="0.14" stop-color="#777"/><stop offset="0.2" stop-color="#575757"/><stop offset="0.25" stop-color="#3b3b3b"/><stop offset="0.32" stop-color="#252525"/><stop offset="0.4" stop-color="#141414"/><stop offset="0.49" stop-color="#090909"/><stop offset="0.63" stop-color="#020202"/><stop offset="1"/></linearGradient><filter id="luminosity-noclip-2" x="295.1" y="-8692" width="668.48" height="32766" filterUnits="userSpaceOnUse" color-interpolation-filters="sRGB"><feFlood flood-color="#fff" result="bg"/><feBlend in="SourceGraphic" in2="bg"/></filter><mask id="mask-2" x="295.1" y="-8692" width="668.48" height="32766" maskUnits="userSpaceOnUse"><g class="cls-49"/></mask><linearGradient id="linear-gradient-2" x1="629.33" y1="729.86" x2="629.33" y2="724.35" gradientUnits="userSpaceOnUse"><stop offset="0" stop-color="#1a1a1a"/><stop offset="0.55" stop-color="#0e0e0e"/><stop offset="1"/></linearGradient><filter id="luminosity-noclip-3" x="425.29" y="-8692" width="542.4" height="32766" filterUnits="userSpaceOnUse" color-interpolation-filters="sRGB"><feFlood flood-color="#fff" result="bg"/><feBlend in="SourceGraphic" in2="bg"/></filter><mask id="mask-3" x="425.29" y="-8692" width="542.4" height="32766" maskUnits="userSpaceOnUse"><g class="cls-48"/></mask><linearGradient id="linear-gradient-3" x1="696.49" y1="667.44" x2="696.49" y2="262.84" gradientUnits="userSpaceOnUse"><stop offset="0.2"/><stop offset="0.5" stop-color="#020202"/><stop offset="0.6" stop-color="#090909"/><stop offset="0.68" stop-color="#141414"/><stop offset="0.74" stop-color="#252525"/><stop offset="0.8" stop-color="#3b3b3b"/><stop offset="0.84" stop-color="#575757"/><stop offset="0.89" stop-color="#777"/><stop offset="0.93" stop-color="#9d9d9d"/><stop offset="0.96" stop-color="#c8c8c8"/><stop offset="0.99" stop-color="#f6f6f6"/><stop offset="1" stop-color="#fff"/></linearGradient><filter id="luminosity-noclip-4" x="947.18" y="-8692" width="116.77" height="32766" filterUnits="userSpaceOnUse" color-interpolation-filters="sRGB"><feFlood flood-color="#fff" result="bg"/><feBlend in="SourceGraphic" in2="bg"/></filter><mask id="mask-4" x="947.18" y="-8692" width="116.77" height="32766" maskUnits="userSpaceOnUse"><g class="cls-47"/></mask><linearGradient id="linear-gradient-4" x1="1005.57" y1="843.24" x2="1005.57" y2="595.8" gradientUnits="userSpaceOnUse"><stop offset="0"/><stop offset="0.29" stop-color="#020202"/><stop offset="0.43" stop-color="#0a0a0a"/><stop offset="0.53" stop-color="#171717"/><stop offset="0.62" stop-color="#292929"/><stop offset="0.7" stop-color="#414141"/><stop offset="0.77" stop-color="#5e5e5e"/><stop offset="0.84" stop-color="#818181"/><stop offset="0.9" stop-color="#aaa"/><stop offset="0.96" stop-color="#d7d7d7"/><stop offset="1" stop-color="#fff"/></linearGradient><filter id="luminosity-noclip-5" x="940.78" y="-8692" width="127.57" height="32766" filterUnits="userSpaceOnUse" color-interpolation-filters="sRGB"><feFlood flood-color="#fff" result="bg"/><feBlend in="SourceGraphic" in2="bg"/></filter><mask id="mask-5" x="940.78" y="-8692" width="127.57" height="32766" maskUnits="userSpaceOnUse"><g class="cls-46"/></mask><linearGradient id="linear-gradient-5" x1="1004.56" y1="855.07" x2="1004.56" y2="599.58" xlink:href="#linear-gradient-3"/><linearGradient id="linear-gradient-6" x1="527.35" y1="821.35" x2="731.32" y2="821.35" gradientUnits="userSpaceOnUse"><stop offset="0" stop-color="#343434"/><stop offset="0.08" stop-color="#3e3e3e"/><stop offset="0.16" stop-color="#4f4f4f"/><stop offset="0.27" stop-color="#696969"/><stop offset="0.39" stop-color="gray"/><stop offset="0.65" stop-color="#7c7e7f"/><stop offset="0.75" stop-color="#6b6c6d"/><stop offset="0.96" stop-color="#3e3e3e"/><stop offset="1" stop-color="#343434"/></linearGradient><linearGradient id="linear-gradient-7" x1="629.34" y1="821.86" x2="629.34" y2="724.27" gradientUnits="userSpaceOnUse"><stop offset="0" stop-color="#535353"/><stop offset="0.16" stop-color="#585858"/><stop offset="0.18" stop-color="#4e4e4e"/><stop offset="0.24" stop-color="#373737"/><stop offset="0.28" stop-color="#414141"/><stop offset="0.34" stop-color="#5c5c5c"/><stop offset="0.39" stop-color="#777"/><stop offset="0.65" stop-color="#696a6c"/><stop offset="0.76" stop-color="#58595a"/><stop offset="0.99" stop-color="#2b2b2b"/><stop offset="1" stop-color="#2a2a2a"/></linearGradient><filter id="luminosity-noclip-6" x="527.35" y="818.28" width="203.98" height="6.12" filterUnits="userSpaceOnUse" color-interpolation-filters="sRGB"><feFlood flood-color="#fff" result="bg"/><feBlend in="SourceGraphic" in2="bg"/></filter><mask id="mask-6" x="236.36" y="555.45" width="203.98" height="6.12" maskUnits="userSpaceOnUse"><g class="cls-45"><g transform="translate(-290.98 -262.83)"><g class="cls-1"><path class="cls-2" d="M528.55,818.28h-1.2V821a3.51,3.51,0,0,0,3.56,3.45H727.76a3.51,3.51,0,0,0,3.56-3.45v-2.68Z"/></g></g></g></mask><linearGradient id="linear-gradient-8" x1="629.34" y1="824.41" x2="629.34" y2="818.28" gradientUnits="userSpaceOnUse"><stop offset="0" stop-color="#343434"/><stop offset="0.04" stop-color="#393939"/><stop offset="0.19" stop-color="#444"/><stop offset="0.41" stop-color="#4b4b4b"/><stop offset="1" stop-color="#4d4d4d"/></linearGradient><linearGradient id="linear-gradient-9" x1="290.98" y1="698.65" x2="967.69" y2="698.65" gradientUnits="userSpaceOnUse"><stop offset="0" stop-color="#4b4b4d"/><stop offset="1" stop-color="#707070"/></linearGradient><filter id="luminosity-noclip-7" x="295.1" y="724.35" width="668.48" height="5.51" filterUnits="userSpaceOnUse" color-interpolation-filters="sRGB"><feFlood flood-color="#fff" result="bg"/><feBlend in="SourceGraphic" in2="bg"/></filter><mask id="mask-7" x="4.11" y="461.51" width="668.48" height="5.51" maskUnits="userSpaceOnUse"><g class="cls-44"><g transform="translate(-290.98 -262.83)"><g class="cls-3"><path class="cls-4" d="M963.57,724.35a16.29,16.29,0,0,1-12.24,5.51h-644a16.29,16.29,0,0,1-12.24-5.51Z"/></g></g></g></mask><linearGradient id="linear-gradient-10" x1="629.33" y1="729.86" x2="629.33" y2="724.35" gradientUnits="userSpaceOnUse"><stop offset="0"/><stop offset="0.09" stop-color="#0c0c0c"/><stop offset="0.25" stop-color="#2d2d2d"/><stop offset="0.47" stop-color="#636363"/><stop offset="0.73" stop-color="#adadad"/><stop offset="1" stop-color="#fff"/></linearGradient><linearGradient id="linear-gradient-11" x1="89.76" y1="-31.12" x2="586.95" y2="466.07" gradientUnits="userSpaceOnUse"><stop offset="0" stop-color="#f2f3f4"/><stop offset="0.36" stop-color="#edeeef"/><stop offset="0.78" stop-color="#dfe0e0"/><stop offset="1" stop-color="#d5d6d6"/></linearGradient><filter id="luminosity-noclip-8" x="425.29" y="262.84" width="542.4" height="404.6" filterUnits="userSpaceOnUse" color-interpolation-filters="sRGB"><feFlood flood-color="#fff" result="bg"/><feBlend in="SourceGraphic" in2="bg"/></filter><mask id="mask-8" x="134.31" y="0" width="542.4" height="404.6" maskUnits="userSpaceOnUse"><g class="cls-43"><g transform="translate(-290.98 -262.83)"><g class="cls-5"><path class="cls-6" d="M967.69,279.19V667.44H425.29l404.6-404.6H951.33A16.36,16.36,0,0,1,967.69,279.19Z"/></g></g></g></mask><linearGradient id="linear-gradient-12" x1="696.49" y1="667.44" x2="696.49" y2="262.84" gradientUnits="userSpaceOnUse"><stop offset="0.2" stop-color="#fff"/><stop offset="0.89" stop-color="#fff"/><stop offset="1" stop-color="#fff"/></linearGradient><linearGradient id="linear-gradient-13" x1="941.26" y1="727.29" x2="943.12" y2="727.29" gradientUnits="userSpaceOnUse"><stop offset="0" stop-color="#666"/><stop offset="0.06" stop-color="#727272"/><stop offset="0.33" stop-color="#a8a8a8"/><stop offset="0.57" stop-color="#d0d0d0"/><stop offset="0.76" stop-color="#e8e8e8"/><stop offset="0.87" stop-color="#f1f1f1"/><stop offset="0.95" stop-color="#f7f7f7"/><stop offset="1" stop-color="#fff"/></linearGradient><linearGradient id="linear-gradient-14" x1="1065.34" y1="727.3" x2="1067.18" y2="727.3" gradientUnits="userSpaceOnUse"><stop offset="0" stop-color="#fff"/><stop offset="0.05" stop-color="#f7f7f7"/><stop offset="0.13" stop-color="#f1f1f1"/><stop offset="0.24" stop-color="#e8e8e8"/><stop offset="0.43" stop-color="#d0d0d0"/><stop offset="0.67" stop-color="#a8a8a8"/><stop offset="0.94" stop-color="#727272"/><stop offset="1" stop-color="#666"/></linearGradient><linearGradient id="linear-gradient-15" x1="1004.08" y1="854.58" x2="1004.08" y2="839.89" gradientUnits="userSpaceOnUse"><stop offset="0" stop-color="#f1f1f1"/><stop offset="0.12" stop-color="#e3e3e3"/><stop offset="0.34" stop-color="#bfbfbf"/><stop offset="0.63" stop-color="#848484"/><stop offset="1" stop-color="#333"/></linearGradient><linearGradient id="linear-gradient-16" x1="1004.08" y1="614.08" x2="1004.08" y2="595.74" gradientUnits="userSpaceOnUse"><stop offset="0" stop-color="#333"/><stop offset="0.07" stop-color="#4c4c4c"/><stop offset="0.25" stop-color="#828282"/><stop offset="0.42" stop-color="#afafaf"/><stop offset="0.59" stop-color="#d2d2d2"/><stop offset="0.74" stop-color="#ebebeb"/><stop offset="0.89" stop-color="#fafafa"/><stop offset="1" stop-color="#fff"/></linearGradient><linearGradient id="linear-gradient-17" x1="1059.56" y1="727.39" x2="1064.02" y2="727.39" gradientUnits="userSpaceOnUse"><stop offset="0" stop-color="#f1f1f1"/><stop offset="0" stop-color="#f0f0f0"/><stop offset="0.14" stop-color="#b7b7b7"/><stop offset="0.27" stop-color="#888"/><stop offset="0.4" stop-color="#636363"/><stop offset="0.51" stop-color="#494949"/><stop offset="0.62" stop-color="#393939"/><stop offset="0.7" stop-color="#333"/></linearGradient><linearGradient id="linear-gradient-18" x1="946.7" y1="844.84" x2="1061.47" y2="844.84" gradientUnits="userSpaceOnUse"><stop offset="0"/><stop offset="0.1" stop-color="#141414"/><stop offset="0.26" stop-color="#2c2c2c"/><stop offset="0.4" stop-color="#3b3b3b"/><stop offset="0.52" stop-color="#404040"/><stop offset="0.63" stop-color="#393939"/><stop offset="0.79" stop-color="#242424"/><stop offset="0.99" stop-color="#020202"/><stop offset="1"/></linearGradient><linearGradient id="linear-gradient-19" x1="946.7" y1="609.95" x2="1064.03" y2="609.95" xlink:href="#linear-gradient-18"/><linearGradient id="linear-gradient-20" x1="944.14" y1="727.31" x2="946.79" y2="727.31" gradientUnits="userSpaceOnUse"><stop offset="0" stop-color="#404040"/><stop offset="0.64" stop-color="#1a1a1a"/><stop offset="1" stop-color="#0a0a0a"/></linearGradient><linearGradient id="linear-gradient-21" x1="1059.55" y1="727.4" x2="1064.02" y2="727.4" gradientUnits="userSpaceOnUse"><stop offset="0" stop-color="#0a0a0a"/><stop offset="0.36" stop-color="#1a1a1a"/><stop offset="1" stop-color="#404040"/></linearGradient><linearGradient id="linear-gradient-22" x1="705.36" y1="346.5" x2="720.07" y2="346.5" gradientUnits="userSpaceOnUse"><stop offset="0" stop-color="#333"/><stop offset="0.09" stop-color="#2b2b2b"/><stop offset="0.29" stop-color="#1e1e1e"/><stop offset="0.48" stop-color="#1a1a1a"/><stop offset="0.79" stop-color="#1c1c1c"/><stop offset="0.9" stop-color="#232323"/><stop offset="0.98" stop-color="#2e2e2e"/><stop offset="1" stop-color="#333"/></linearGradient><linearGradient id="linear-gradient-23" x1="919.26" y1="642.49" x2="1088.91" y2="812.13" xlink:href="#linear-gradient-11"/><filter id="luminosity-noclip-9" x="947.18" y="595.8" width="116.77" height="247.44" filterUnits="userSpaceOnUse" color-interpolation-filters="sRGB"><feFlood flood-color="#fff" result="bg"/><feBlend in="SourceGraphic" in2="bg"/></filter><mask id="mask-9" x="656.2" y="332.96" width="116.77" height="247.44" maskUnits="userSpaceOnUse"><g class="cls-42"><g transform="translate(-290.98 -262.83)"><g class="cls-7"><path class="cls-8" d="M947.2,833.76a0,0,0,0,0,0,0s0,0,0,0Zm2.44,4.08s0,0,0,0l.09.12Zm5.92,4.38.17,0s0,0,0,0A.74.74,0,0,0,955.56,842.22Zm99.72,1a0,0,0,0,0,0,0h.15Zm8.24-247.37-.06-.07.16.15A.39.39,0,0,0,1063.52,595.87Zm.2,243.44.12-.14.11-.09Z"/></g></g></g></mask><linearGradient id="linear-gradient-24" x1="1005.57" y1="843.24" x2="1005.57" y2="595.8" gradientUnits="userSpaceOnUse"><stop offset="0" stop-color="#fff"/><stop offset="0.85" stop-color="#fff"/><stop offset="1" stop-color="#fff"/></linearGradient><filter id="luminosity-noclip-10" x="940.78" y="599.58" width="127.57" height="255.49" filterUnits="userSpaceOnUse" color-interpolation-filters="sRGB"><feFlood flood-color="#fff" result="bg"/><feBlend in="SourceGraphic" in2="bg"/></filter><mask id="mask-10" x="649.8" y="336.74" width="127.57" height="255.49" maskUnits="userSpaceOnUse"><g class="cls-41"><g transform="translate(-290.98 -262.83)"><g class="cls-9"><path class="cls-10" d="M1068.18,658.71a.54.54,0,0,0-.31-.12.47.47,0,0,0-.48.48V616.81a17.22,17.22,0,0,0-17.23-17.23h-6.44L940.78,702.52V837.84A17.22,17.22,0,0,0,958,855.07h92.15a17.22,17.22,0,0,0,17.23-17.23V687.45a.47.47,0,0,0,.79.36.51.51,0,0,0,.17-.36V659.07A.49.49,0,0,0,1068.18,658.71Z"/></g></g></g></mask><linearGradient id="linear-gradient-25" x1="1004.56" y1="855.07" x2="1004.56" y2="599.58" xlink:href="#linear-gradient-12"/></defs><g class="cls-11"><g id="object"><path class="cls-12" d="M528.55,818.28h-1.2V821a3.51,3.51,0,0,0,3.56,3.45H727.76a3.51,3.51,0,0,0,3.56-3.45v-2.68Z" transform="translate(-290.98 -262.83)"/><path class="cls-13" d="M727.76,821.86H530.91a3.5,3.5,0,0,1-2.06-6.37l19.75-13.85a15.44,15.44,0,0,0,6.54-11.14l6.44-66.23H697.09l6.44,66.23a15.44,15.44,0,0,0,6.54,11.14l19.75,13.85A3.5,3.5,0,0,1,727.76,821.86Z" transform="translate(-290.98 -262.83)"/><g class="cls-14"><path class="cls-15" d="M528.55,818.28h-1.2V821a3.51,3.51,0,0,0,3.56,3.45H727.76a3.51,3.51,0,0,0,3.56-3.45v-2.68Z" transform="translate(-290.98 -262.83)"/></g><rect class="cls-16" width="676.7" height="466.44" rx="16.36"/><path d="M967.69,279.77V713.51a16.35,16.35,0,0,1-16.36,16.35h-644A16.36,16.36,0,0,1,291,713.51V279.77a16.36,16.36,0,0,1,16.36-16.35h644A16.35,16.35,0,0,1,967.69,279.77Z" transform="translate(-290.98 -262.83)"/><path class="cls-17" d="M967.69,667.44v46.07a16.37,16.37,0,0,1-16.36,16.35h-644A16.37,16.37,0,0,1,291,713.51V667.44Z" transform="translate(-290.98 -262.83)"/><g class="cls-18"><path class="cls-19" d="M963.57,724.35a16.29,16.29,0,0,1-12.24,5.51h-644a16.29,16.29,0,0,1-12.24-5.51Z" transform="translate(-290.98 -262.83)"/></g><path class="cls-16" d="M940,291.33H318.64a1.22,1.22,0,0,0-1.21,1.22V667.44h1.84V293.19H939.4V667.44h1.84V292.55A1.22,1.22,0,0,0,940,291.33Z" transform="translate(-290.98 -262.83)"/><rect class="cls-20" y="404.6" width="676.71" height="2.03"/><rect class="cls-21" x="28.29" y="30.35" width="620.13" height="374.25"/><g class="cls-22"><path class="cls-23" d="M967.69,279.19V667.44H425.29l404.6-404.6H951.33A16.36,16.36,0,0,1,967.69,279.19Z" transform="translate(-290.98 -262.83)"/></g><path class="cls-24" d="M1050.16,599.58H958a17.22,17.22,0,0,0-17.22,17.22v221A17.22,17.22,0,0,0,958,855.06h92.16a17.22,17.22,0,0,0,17.22-17.22v-221A17.22,17.22,0,0,0,1050.16,599.58Zm16.75,236.66a16.81,16.81,0,0,1-.81,5.14c0,.13-.08.25-.13.38s-.08.24-.13.36a2.33,2.33,0,0,1-.11.28c-.11.27-.22.54-.34.8l-.17.36c-.08.16-.16.32-.25.48s-.11.21-.17.32-.12.22-.19.33c-.18.31-.37.61-.57.91l-.2.28a3.46,3.46,0,0,1-.22.31l-.23.31-.24.3-.25.3-.52.57c-.26.29-.54.57-.83.84l-.27.23c-.2.18-.4.36-.61.53l-.27.21c-.31.24-.62.46-.94.68l-.32.21-.67.4-.33.18c-.36.2-.73.39-1.1.55l-.3.13-.36.15-.36.15-.83.28-.29.09c-.37.11-.74.2-1.12.29l-.4.08-.42.08-.78.11h0l-.16,0h-.15c.24,0,.47-.06.7-.1a2.14,2.14,0,0,0,.35-.06l.34-.06c.35-.07.69-.16,1-.25l.34-.1.65-.22c.33-.12.65-.25,1-.38l.31-.14.31-.15c.21-.1.41-.21.61-.32l.59-.34.52-.33,0,0c.28-.19.56-.39.82-.59l.27-.22c.25-.2.49-.41.73-.63a15.58,15.58,0,0,0,1.61-1.74l.21-.27a15.25,15.25,0,0,0,1.79-3.05c.08-.17.15-.35.22-.53a15.13,15.13,0,0,0,.78-2.69c0-.18.07-.36.09-.55a14.44,14.44,0,0,0,.18-2.29v-221a15.17,15.17,0,0,0-13.55-15.06l-.4,0-.42,0h0c-.26,0-.52,0-.78,0H958c-.26,0-.52,0-.78,0h0a15.16,15.16,0,0,0-14.36,15.12v221a15.16,15.16,0,0,0,13.44,15l-.3,0h0l-.79-.11a16.65,16.65,0,0,1-4.48-1.44l-.3-.14c-.24-.13-.49-.26-.73-.41l-.33-.19a17.19,17.19,0,0,1-1.59-1.09l-.27-.21c-.27-.22-.53-.45-.78-.68a2.73,2.73,0,0,1-.25-.23l-.28-.27-.27-.28-.18-.18-.22-.24c-.42-.48-.82-1-1.2-1.51l-.19-.28q-.3-.45-.57-.9a3.72,3.72,0,0,1-.19-.34,16.4,16.4,0,0,1-1.17-2.6c-.05-.13-.09-.25-.13-.38a15.27,15.27,0,0,1-.49-1.91c0-.13-.06-.27-.08-.4a17.52,17.52,0,0,1-.24-2.83V616.8c0-.17,0-.33,0-.49s0-.25,0-.37c0-.27,0-.53.07-.8s0-.27,0-.41l0-.22c0-.08,0-.17,0-.26l.06-.41c.05-.24.09-.48.15-.71s.05-.23.08-.35c.08-.35.18-.69.29-1,0-.11.07-.22.1-.32s.09-.27.14-.39l.12-.32.11-.27.13-.31c0-.08.07-.16.11-.23s.1-.23.16-.35l.29-.59c0-.1.11-.19.17-.29l.19-.35a16.47,16.47,0,0,1,1.58-2.24,3.47,3.47,0,0,1,.25-.29l.29-.33.51-.53.56-.54.6-.51.3-.25c.2-.16.41-.31.63-.47l.64-.44c.22-.14.44-.28.67-.41l.34-.19.35-.19.35-.18.36-.17c.23-.11.48-.21.72-.31l.35-.14,0,0,.35-.13.36-.12.41-.12.38-.11.39-.1.39-.1c.27-.06.53-.11.8-.15l.4-.07.87-.1.7,0,.43,0h93l.36,0,.81,0h0l.41,0,.4.05.41.07.39.07h0l.39.08.36.08.08,0,.33.09.47.14.31.1c.24.07.47.15.7.24a4.37,4.37,0,0,1,.46.18l.33.14.36.16.35.17a16.06,16.06,0,0,1,2.4,1.44l.28.2q.49.38,1,.78l.4.37a16.26,16.26,0,0,1,1.51,1.6l.25.31c.17.21.33.43.48.64a4,4,0,0,1,.23.34c.13.18.26.38.38.57l.18.3.32.57c0,.1.1.19.14.29.17.32.33.64.47,1,0,.09.08.17.11.26.14.33.27.67.38,1,0,.12.09.25.13.38a15.48,15.48,0,0,1,.53,2.26,1.87,1.87,0,0,1,0,.25l.06.4c0,.14,0,.27,0,.41s0,.27,0,.41,0,.51,0,.76,0,.33,0,.49Z" transform="translate(-290.98 -262.83)"/><path class="cls-25" d="M956.4,852.9l-.4,0h0l-.79-.11a16.65,16.65,0,0,1-4.48-1.44l-.3-.14c-.24-.13-.49-.26-.73-.41l-.33-.19a17.19,17.19,0,0,1-1.59-1.09l-.27-.21c-.27-.22-.53-.45-.78-.68a2.73,2.73,0,0,1-.25-.23l-.28-.27-.27-.28-.18-.18-.22-.24c-.42-.48-.82-1-1.2-1.51l-.19-.28q-.3-.45-.57-.9a3.72,3.72,0,0,1-.19-.34,16.4,16.4,0,0,1-1.17-2.6c-.05-.13-.09-.25-.13-.38a15.27,15.27,0,0,1-.49-1.91c0-.13-.06-.27-.08-.4a17.52,17.52,0,0,1-.24-2.83V618.4a16.76,16.76,0,0,1,16-16.72,15.16,15.16,0,0,0-14.36,15.12v221A15.16,15.16,0,0,0,956.4,852.9Z" transform="translate(-290.98 -262.83)"/><path class="cls-26" d="M1066.91,618.4V836.24a16.81,16.81,0,0,1-.81,5.14c0,.13-.08.25-.13.38s-.08.24-.13.36a2.33,2.33,0,0,1-.11.28c-.11.27-.22.54-.34.8l-.17.36c-.08.16-.16.32-.25.48s-.11.21-.17.32-.12.22-.19.33c-.18.31-.37.61-.57.91l-.2.28c-.07.11-.15.21-.22.31l-.23.31-.24.3-.25.3-.52.57c-.26.29-.54.57-.83.84l-.27.23c-.2.18-.4.36-.61.53l-.27.21c-.31.24-.62.46-.94.68l-.32.21-.67.4-.33.18c-.36.2-.73.39-1.1.55l-.3.13-.36.15-.36.15-.83.28-.29.09c-.37.11-.74.2-1.12.29l-.4.08-.42.08-.78.11h0l-.41,0a15.17,15.17,0,0,0,13.55-15.06v-221a15.17,15.17,0,0,0-14-15.1A16.77,16.77,0,0,1,1066.91,618.4Z" transform="translate(-290.98 -262.83)"/><path class="cls-27" d="M1066.91,836.24v1.6a16.76,16.76,0,0,1-16.75,16.74H958a16.77,16.77,0,0,1-16.75-16.74v-1.6a17.52,17.52,0,0,0,.24,2.83c0,.13,0,.27.08.4a15.27,15.27,0,0,0,.49,1.91c0,.13.08.25.13.38a16.4,16.4,0,0,0,1.17,2.6,3.72,3.72,0,0,0,.19.34q.27.45.57.9l.19.28c.38.52.78,1,1.2,1.51l.22.24.18.18.27.28.28.27a2.73,2.73,0,0,0,.25.23c.25.23.51.46.78.68l.27.21a17.19,17.19,0,0,0,1.59,1.09l.33.19c.24.15.49.28.73.41l.3.14a16.65,16.65,0,0,0,4.48,1.44l.79.11h0l.81.08.41,0c.26,0,.52,0,.79,0h92.15c.26,0,.52,0,.78,0l.42,0,.65-.06.16,0h0l.78-.11.42-.08.4-.08c.38-.09.75-.18,1.12-.29l.29-.09.83-.28.36-.15.36-.15.3-.13c.37-.16.74-.35,1.1-.55l.33-.18.67-.4.32-.21c.32-.22.63-.44.94-.68l.27-.21c.21-.17.41-.35.61-.53l.27-.23c.29-.27.57-.55.83-.84l.52-.57.25-.3.24-.3.23-.31a3.46,3.46,0,0,0,.22-.31l.2-.28c.2-.3.39-.6.57-.91.07-.11.13-.22.19-.33s.12-.21.17-.32.17-.32.25-.48.12-.24.17-.36.23-.53.34-.8a2.33,2.33,0,0,0,.11-.28c.05-.12.09-.24.13-.36s.09-.25.13-.38A16.81,16.81,0,0,0,1066.91,836.24Z" transform="translate(-290.98 -262.83)"/><path class="cls-28" d="M1066.91,616.8v1.6a16.76,16.76,0,0,0-15.15-16.66l-.4,0-.42,0h0c-.26,0-.52,0-.78,0H958c-.26,0-.52,0-.78,0h0a16.76,16.76,0,0,0-16,16.72v-1.6c0-.17,0-.33,0-.49s0-.25,0-.37c0-.27,0-.53.07-.8s0-.27,0-.41l0-.22c0-.08,0-.17,0-.26l.06-.41c.05-.24.09-.48.15-.71s.05-.23.08-.35c.08-.35.18-.69.29-1,0-.11.07-.22.1-.32s.09-.27.14-.39l.12-.32.11-.27.13-.31c0-.08.07-.16.11-.23s.1-.23.16-.35l.29-.59c0-.1.11-.19.17-.29l.19-.35a16.47,16.47,0,0,1,1.58-2.24,3.47,3.47,0,0,1,.25-.29l.29-.33.51-.53.56-.54.6-.51.3-.25c.2-.16.41-.31.63-.47l.64-.44c.22-.14.44-.28.67-.41l.34-.19.35-.19.35-.18.36-.17c.23-.11.48-.21.72-.31l.35-.14,0,0,.35-.13.36-.12.41-.12.38-.11.39-.1.39-.1c.27-.06.53-.11.8-.15l.4-.07.87-.1.7,0,.43,0h93l.36,0,.81,0h0l.41,0,.4.05.41.07.39.07h0l.39.08.36.08.08,0,.33.09.47.14.31.1c.24.07.47.15.7.24a4.37,4.37,0,0,1,.46.18l.33.14.36.16.35.17a16.06,16.06,0,0,1,2.4,1.44l.28.2q.49.38,1,.78l.4.37a16.26,16.26,0,0,1,1.51,1.6l.25.31c.17.21.33.43.48.64a4,4,0,0,1,.23.34c.13.18.26.38.38.57l.18.3.32.57c0,.1.1.19.14.29.17.32.33.64.47,1,0,.09.08.17.11.26.14.33.27.67.38,1,0,.12.09.25.13.38a15.48,15.48,0,0,1,.53,2.26,1.87,1.87,0,0,1,0,.25l.06.4c0,.14,0,.27,0,.41s0,.27,0,.41,0,.51,0,.76S1066.91,616.64,1066.91,616.8Z" transform="translate(-290.98 -262.83)"/><path class="cls-29" d="M1050.94,601.68h0c-.26,0-.52,0-.78,0H958c-.26,0-.52,0-.78,0h0a15.16,15.16,0,0,0-14.36,15.12v221a15.17,15.17,0,0,0,13.95,15.1l.41,0c.26,0,.52,0,.79,0h92.15c.26,0,.52,0,.78,0l.42,0a15.18,15.18,0,0,0,14-15.1v-221A15.16,15.16,0,0,0,1050.94,601.68ZM1064,837.84a13.92,13.92,0,0,1-12.76,13.82l-.39,0h-93.6l-.37,0a13.92,13.92,0,0,1-12.77-13.82v-221A13.87,13.87,0,0,1,957.26,603h0l.71,0h92.15l.72,0h0A13.86,13.86,0,0,1,1064,616.8Z" transform="translate(-290.98 -262.83)"/><path class="cls-30" d="M1064,616.89v221a13.58,13.58,0,0,1-.58,4,13,13,0,0,1-1.23,2.86c-.1.19-.22.37-.33.55s-.35.53-.53.79a14.78,14.78,0,0,1-1.79,2,14.44,14.44,0,0,0,1.91-7.17v-2.55c0-.15,0-.3,0-.45v-221c0-.16,0-.32,0-.47v-2.49a14.54,14.54,0,0,0-1.91-7.22A13.85,13.85,0,0,1,1064,616.89Z" transform="translate(-290.98 -262.83)"/><path d="M1050.83,604.23H957.29a12.59,12.59,0,0,0-11.87,12.57v221A12.64,12.64,0,0,0,957,850.39l.3,0h0l.66,0h92.15l.65,0h0l.32,0a12.65,12.65,0,0,0,11.58-12.55v-221A12.58,12.58,0,0,0,1050.83,604.23Zm8.56,233.61a9.2,9.2,0,0,1-1.91,5.61l-.2.25c-.2.24-.42.48-.64.7a8.39,8.39,0,0,1-.63.56h0a8.89,8.89,0,0,1-1.78,1.16h0l-.48.22h0l-.5.2a8.36,8.36,0,0,1-1,.3,9.18,9.18,0,0,1-1.31.2H957.27a9.28,9.28,0,0,1-8.5-9.2v-221a9.24,9.24,0,0,1,8.62-9.21h93.36l.26,0h.13l.24,0,.28,0h0a2.93,2.93,0,0,1,.41.07l.08,0,.33.08.48.14.39.13.4.16a8,8,0,0,1,.78.38,6.58,6.58,0,0,1,.67.4l.14.09.27.19c.12.08.23.17.34.26s.43.37.63.57a2.83,2.83,0,0,1,.3.3l.28.32a8.49,8.49,0,0,1,1,1.39c.15.24.27.5.4.76s.22.52.32.8.09.27.13.41a7.24,7.24,0,0,1,.22.92,2.2,2.2,0,0,1,.06.37,8.45,8.45,0,0,1,.1,1.34Z" transform="translate(-290.98 -262.83)"/><path d="M973.42,611.83c0-.07-.06-.13-.09-.19l0-.07Z" transform="translate(-290.98 -262.83)"/><path d="M1034.86,611.57s0,0,0,.07l-.09.19C1034.79,611.74,1034.83,611.66,1034.86,611.57Z" transform="translate(-290.98 -262.83)"/><path d="M1036.86,607.57a1.54,1.54,0,0,0-1.45,1.38,1.27,1.27,0,0,1,0,.2,5.7,5.7,0,0,1-.09.83c0,.09,0,.18,0,.28h0c0,.11,0,.22-.07.33s-.06.2-.08.3l0,.07a.19.19,0,0,1,0,.07.42.42,0,0,1,0,.06l0,.1a.76.76,0,0,0,0,.11c0,.09-.07.18-.11.27s-.07.17-.11.26l0,0v0l-.11.21-.09.19,0,.06a.41.41,0,0,1,0,.09l-.07.12,0,0,0,0a.56.56,0,0,1,0,.08l-.06.1,0,.07,0,0-.06.1,0,.06-.07.09s0,0,0,0l0,0-.07.1,0,0-.09.1h0l-.11.13a.69.69,0,0,1-.11.13h0l-.07.08-.09.09-.08.08-.15.15-.12.11-.07.06-.18.15-.17.14-.11.08a.94.94,0,0,1-.12.09h0l-.12.08-.06,0-.21.13-.16.11-.21.11-.09,0h0l-.16.08-.14.07-.13.06-.07,0-.06,0h0l-.34.14-.32.1-.35.1q-.35.09-.72.15l-.3,0h-.32l-.3,0H979.91l-.3,0h-.32l-.31,0q-.36-.06-.72-.15l-.35-.1-.31-.1-.34-.14h0l-.06,0-.07,0-.13-.06-.14-.07-.16-.08h0l-.08,0-.21-.11-.17-.11-.21-.13,0,0-.13-.08h0a.94.94,0,0,1-.12-.09l-.11-.08-.17-.14-.18-.15-.08-.06-.11-.11-.15-.15-.08-.08-.09-.09-.07-.08h0a.18.18,0,0,1,0-.07c-.06-.07-.12-.13-.17-.2h0l-.08-.1,0,0a.61.61,0,0,1-.07-.1l0,0,0,0-.06-.09,0-.06-.06-.1,0,0,0-.07a.33.33,0,0,1-.06-.1.22.22,0,0,1,0-.08l0,0,0,0a.75.75,0,0,1-.07-.12l-.06-.09,0-.06-.09-.19a2.12,2.12,0,0,1-.11-.21v0a0,0,0,0,1,0,0l-.12-.26-.1-.27a.76.76,0,0,0,0-.11l0-.1a.11.11,0,0,1,0-.06l0-.07a.19.19,0,0,0,0-.07c0-.1-.06-.2-.08-.3s-.05-.22-.08-.33h0c0-.1,0-.19,0-.28a7.52,7.52,0,0,1-.09-.83V609a1.55,1.55,0,0,0-1.46-1.38Z" transform="translate(-290.98 -262.83)"/><path d="M979.61,616.1l.3,0h-.3Z" transform="translate(-290.98 -262.83)"/><path d="M1028.82,616.09h-.56l.3,0Z" transform="translate(-290.98 -262.83)"/><path d="M973.2,611.3h0l0-.1A.76.76,0,0,1,973.2,611.3Z" transform="translate(-290.98 -262.83)"/><path d="M973.42,611.83c0-.07-.06-.13-.09-.19l0-.07Z" transform="translate(-290.98 -262.83)"/><path d="M974.32,613.31l-.09-.12,0,0A.61.61,0,0,0,974.32,613.31Z" transform="translate(-290.98 -262.83)"/><path d="M974.61,613.65a.69.69,0,0,1-.11-.13l-.07-.07h0C974.49,613.52,974.55,613.58,974.61,613.65Z" transform="translate(-290.98 -262.83)"/><path d="M974.74,613.8a.6.6,0,0,0-.08-.08h0Z" transform="translate(-290.98 -262.83)"/><path d="M975.6,614.58l-.17-.13-.11-.09-.07-.07.18.15Z" transform="translate(-290.98 -262.83)"/><path d="M975.71,614.66a.94.94,0,0,0,.12.09l0,0Z" transform="translate(-290.98 -262.83)"/><path d="M976.22,615l-.12-.07h0l-.08-.06Z" transform="translate(-290.98 -262.83)"/><path d="M977.6,615.69l-.28-.11-.06,0Z" transform="translate(-290.98 -262.83)"/><path d="M977.91,615.79l.35.1-.23-.06-.12,0-.15-.06-.16,0Z" transform="translate(-290.98 -262.83)"/><path d="M979,616l.31,0-.27,0h0l-.12,0-.24,0-.31-.07,0,0Q978.62,616,979,616Z" transform="translate(-290.98 -262.83)"/><path d="M979.61,616.1h0Z" transform="translate(-290.98 -262.83)"/><path d="M1028.16,616.12h0Z" transform="translate(-290.98 -262.83)"/><path d="M1028.56,616.1h0Z" transform="translate(-290.98 -262.83)"/><path d="M1029.18,616q.38-.06.72-.15l-.05,0-.3.07-.24,0-.13,0h0l-.27,0Z" transform="translate(-290.98 -262.83)"/><path d="M1030.57,615.69l-.16,0-.16.06-.11,0-.24.06.35-.1Z" transform="translate(-290.98 -262.83)"/><path d="M1030.57,615.69l.34-.14-.06,0Z" transform="translate(-290.98 -262.83)"/><path d="M1031.94,615l.21-.13-.07.06h0Z" transform="translate(-290.98 -262.83)"/><path d="M1032.46,614.66l-.09.07,0,0A.94.94,0,0,0,1032.46,614.66Z" transform="translate(-290.98 -262.83)"/><path d="M1032.92,614.29l-.08.07-.1.09-.17.13.17-.14Z" transform="translate(-290.98 -262.83)"/><path d="M1033.5,613.72l-.07.08.07-.08Z" transform="translate(-290.98 -262.83)"/><path d="M1033.73,613.45l-.06.07-.05.06.11-.13Z" transform="translate(-290.98 -262.83)"/><path d="M1033.94,613.19l-.09.12.07-.1Z" transform="translate(-290.98 -262.83)"/><path d="M1034.86,611.57s0,0,0,.07l-.09.19C1034.79,611.74,1034.83,611.66,1034.86,611.57Z" transform="translate(-290.98 -262.83)"/><path d="M1035,611.19l0,.1h0A.76.76,0,0,1,1035,611.19Z" transform="translate(-290.98 -262.83)"/><path class="cls-31" d="M1061.47,838.36v2.55a14.44,14.44,0,0,1-1.91,7.17,13.77,13.77,0,0,1-8.29,3.65l-.39,0c-.23,0-.47,0-.71,0H958c-.24,0-.48,0-.72,0l-.38,0-.53-.05a13.79,13.79,0,0,1-7.76-3.6,14.41,14.41,0,0,1-1.92-7.19v-3a11.36,11.36,0,0,0,4,8.59,11.21,11.21,0,0,0,6.43,2.68h94A11.36,11.36,0,0,0,1061.47,838.36Z" transform="translate(-290.98 -262.83)"/><path class="cls-32" d="M1064,616.89v0A13.86,13.86,0,0,0,1050.9,603h0l-.71,0H958l-.71,0h0c-.3,0-.59,0-.89.08a13.79,13.79,0,0,0-7.76,3.57,14.53,14.53,0,0,0-1.91,7.21v3a11.3,11.3,0,0,1,10.64-11.29h93.43a11.29,11.29,0,0,1,10.7,10.82v-2.49a14.54,14.54,0,0,0-1.91-7.22A13.85,13.85,0,0,1,1064,616.89Z" transform="translate(-290.98 -262.83)"/><path class="cls-33" d="M948.62,848a13.89,13.89,0,0,1-4.48-10.18v-221a13.82,13.82,0,0,1,4.47-10.2,14.44,14.44,0,0,0-1.91,7.22v227A14.45,14.45,0,0,0,948.62,848Z" transform="translate(-290.98 -262.83)"/><path class="cls-34" d="M1064,616.89v221a13.58,13.58,0,0,1-.58,4,13,13,0,0,1-1.23,2.86c-.1.19-.22.37-.33.55s-.34.53-.53.79a14.43,14.43,0,0,1-1.8,2v0a14.44,14.44,0,0,0,1.91-7.17v-227a14.54,14.54,0,0,0-1.91-7.22A13.85,13.85,0,0,1,1064,616.89Z" transform="translate(-290.98 -262.83)"/><rect class="cls-35" x="705.36" y="345.73" width="14.71" height="1.55" rx="0.33"/><path class="cls-36" d="M1059.39,616.8v221a9.2,9.2,0,0,1-1.91,5.61l-.2.25c-.21.24-.42.48-.64.7a8.39,8.39,0,0,1-.63.56h0a8.48,8.48,0,0,1-.85.63,10.63,10.63,0,0,1-.93.53h0l-.48.22h0l-.5.2a8.36,8.36,0,0,1-1,.3,9.18,9.18,0,0,1-1.31.2H957.27a9.28,9.28,0,0,1-8.5-9.2v-221a9.24,9.24,0,0,1,8.62-9.21H971.3a1.55,1.55,0,0,1,1.46,1.38v.2a7.52,7.52,0,0,0,.09.83c0,.09,0,.18,0,.28h0c0,.11.05.22.08.33s0,.2.08.3a.19.19,0,0,1,0,.07l0,.07a.11.11,0,0,0,0,.06l0,.1,0,.1h0l.1.27.12.26a0,0,0,0,0,0,0v0a2.12,2.12,0,0,0,.11.21l.09.19,0,.06.06.09a.75.75,0,0,0,.07.12l0,0,0,0a.22.22,0,0,0,0,.08.33.33,0,0,0,.06.1l0,.07,0,0,.06.1,0,.06.06.09,0,0,0,0a.61.61,0,0,0,.07.1l0,0,.08.1h0a.2.2,0,0,0,.06.07.69.69,0,0,0,.11.13.18.18,0,0,0,0,.07h0l.07.08.09.09.08.08.15.15.11.11.08.06.07.07.11.08h0l.17.13.11.08.08.07,0,0h0l.13.08,0,0,.08.06h0l.12.07.17.11.21.11.08,0h0l.16.08.14.07.13.06.07,0,.06,0,.06,0,.28.11.16,0,.15,0h0l.12,0,.23.06,0,0,.31.07.24,0,.12,0h0l.27,0h.45a1.22,1.22,0,0,0,.27,0h48.15a1.22,1.22,0,0,0,.27,0h.45l.27,0h0l.13,0,.24,0,.3-.07.05,0,.24-.06.11,0h0l.16,0,.16,0,.28-.11.06,0,.06,0,.07,0,.13-.06.14-.07.16-.08h0l.09,0,.21-.11.16-.11.13-.07h0l.07-.06.06,0,.12-.08h0l0,0,.09-.07.11-.08.17-.13h0a.39.39,0,0,0,.1-.08l.08-.07.07-.06.12-.11.15-.15.08-.08.09-.09.07-.08h0a.69.69,0,0,0,.11-.13l.05-.06.06-.07h0l.09-.1,0,0,.07-.1,0,0s0,0,0,0l.07-.09,0-.06.06-.1,0,0,0-.07.06-.1a.56.56,0,0,0,0-.08l0,0,0,0,.07-.12a.41.41,0,0,0,0-.09l0-.06.09-.19.11-.21v0l0,0c0-.09.08-.17.11-.26s.08-.18.11-.27h0l0-.1,0-.1a.42.42,0,0,0,0-.06.19.19,0,0,0,0-.07l0-.07c0-.1.05-.2.08-.3s0-.22.07-.33h0c0-.1,0-.19,0-.28a5.7,5.7,0,0,0,.09-.83s0,0,0,0V609a1.54,1.54,0,0,1,1.45-1.38h13.91l.24,0h.13l.24,0,.28,0h0l.41.07.08,0,.33.08.48.14.39.13.4.16c.26.12.52.24.78.38s.45.25.67.4l.14.09.27.19.34.26q.33.27.63.57l.3.3.28.32a8.94,8.94,0,0,1,1,1.39c.15.24.27.5.4.76s.22.52.32.8.09.27.13.41a7.24,7.24,0,0,1,.22.92c0,.12,0,.24.06.37A8.45,8.45,0,0,1,1059.39,616.8Z" transform="translate(-290.98 -262.83)"/><g class="cls-37"><path class="cls-38" d="M947.2,833.76a0,0,0,0,0,0,0s0,0,0,0Zm2.44,4.08s0,0,0,0l.09.12Zm5.92,4.38.17,0s0,0,0,0A.74.74,0,0,0,955.56,842.22Zm99.72,1a0,0,0,0,0,0,0h.15Zm8.24-247.37-.06-.07.16.15A.39.39,0,0,0,1063.52,595.87Zm.2,243.44.12-.14.11-.09Z" transform="translate(-290.98 -262.83)"/></g><g class="cls-39"><path class="cls-40" d="M1068.18,658.71a.54.54,0,0,0-.31-.12.47.47,0,0,0-.48.48V616.81a17.22,17.22,0,0,0-17.23-17.23h-6.44L940.78,702.52V837.84A17.22,17.22,0,0,0,958,855.07h92.15a17.22,17.22,0,0,0,17.23-17.23V687.45a.47.47,0,0,0,.79.36.51.51,0,0,0,.17-.36V659.07A.49.49,0,0,0,1068.18,658.71Z" transform="translate(-290.98 -262.83)"/></g></g></g></svg>