<svg xmlns="http://www.w3.org/2000/svg" viewBox="0 0 198.55 34.75"><defs><style>.cls-1{fill:none;stroke:#1e1e1e;stroke-width:0.75px;}.cls-1,.cls-2{stroke-miterlimit:10;}.cls-2,.cls-3{fill:#58c3e8;}.cls-2{stroke:#69c6de;}.cls-3{font-size:21px;font-family:OriginTechDemoRegular, Origin Tech Demo;}</style></defs><g id="Logo"><g id="Mundo"><circle class="cls-1" cx="118.96" cy="17.37" r="17"/><ellipse class="cls-1" cx="119.14" cy="17.37" rx="11.5" ry="17"/><line class="cls-1" x1="103.59" y1="10.14" x2="134.36" y2="10.14"/><line class="cls-1" x1="103.59" y1="24.61" x2="134.36" y2="24.61"/><line class="cls-1" x1="101.97" y1="17.37" x2="135.96" y2="17.37"/><ellipse class="cls-1" cx="119.05" cy="17.39" rx="6.15" ry="16.98"/><line class="cls-1" x1="119.14" y1="0.4" x2="119.14" y2="34.37"/></g><g id="Nubes_y_mundo" data-name="Nubes y mundo"><path class="cls-2" d="M147.34,67.3a.82.82,0,0,0-1,.67.58.58,0,0,0,0,.19.89.89,0,0,0,.79,1,.61.61,0,0,0,.19,0h2.93a.82.82,0,0,0-.18-1.61H150a1.21,1.21,0,0,0-.86-1.47,1,1,0,0,0-1.06.72.57.57,0,0,0-.71.4A.53.53,0,0,0,147.34,67.3Z" transform="translate(-29.14 -57.08)"/><path class="cls-2" d="M155.27,80.83a.37.37,0,0,1-.3.26c-.28,0-.7.16-.77.87a.9.9,0,0,0,.79,1,.61.61,0,0,0,.19,0h2.93a.79.79,0,0,0,.62-.91.78.78,0,0,0-.6-.69.36.36,0,0,1-.27-.35,1.08,1.08,0,0,0-.76-1.14H157a1.14,1.14,0,0,0-.9.53.33.33,0,0,1-.32.14A.44.44,0,0,0,155.27,80.83Z" transform="translate(-29.14 -57.08)"/><path class="cls-2" d="M138.06,74.1a.28.28,0,0,1-.28.23c-.28,0-.73.14-.81.88a.89.89,0,0,0,.81,1h3.1a.79.79,0,0,0,.62-.9.78.78,0,0,0-.6-.7.36.36,0,0,1-.28-.36,1.07,1.07,0,0,0-.87-1.11.87.87,0,0,0-1,.53.3.3,0,0,1-.29.15A.42.42,0,0,0,138.06,74.1Z" transform="translate(-29.14 -57.08)"/></g></g><g id="Texto"><text id="DREAM_S_WEB" data-name="DREAM’S      WEB" class="cls-3" transform="translate(0 25.24)"><tspan xml:space="preserve">DREAM’S       WEB </tspan></text></g></svg>